<?xml version="1.0" encoding="utf-8"?>
<!-- Generator: Adobe Illustrator 22.1.0, SVG Export Plug-In . SVG Version: 6.00 Build 0)  -->
<svg version="1.1" id="Calque_1" xmlns="http://www.w3.org/2000/svg" xmlns:xlink="http://www.w3.org/1999/xlink" x="0px" y="0px"
	 viewBox="0 0 361.9578552 348.0820312" enable-background="new 0 0 361.9578552 348.0820312" xml:space="preserve">
<path fill="#EEEEEE" d="M357.375824,348.0820312H4.5820312C2.061914,348.0820312,0,346.0201111,0,343.5V4.5820312
	C0,2.061914,2.061914,0,4.5820312,0H357.375824c2.5201111,0,4.5820312,2.061914,4.5820312,4.5820312V343.5
	C361.9578552,346.0201111,359.8959351,348.0820312,357.375824,348.0820312z"/>
<circle fill="#FFFFFF" cx="14.263938" cy="14.3025284" r="3.7997823"/>
<circle fill="#FFFFFF" cx="24.3282261" cy="14.3025284" r="3.7997823"/>
<circle fill="#FFFFFF" cx="34.3925133" cy="14.3025284" r="3.7997823"/>
<path fill="#FFFFFF" d="M348.098053,18.1023102c2.0985718,0,3.7997742-1.7012196,3.7997742-3.7997818
	s-1.7012024-3.7997818-3.7997742-3.7997818H58.3640938c-2.0985603,0-3.7997818,1.7012205-3.7997818,3.7997818
	s1.7012215,3.7997818,3.7997818,3.7997818H348.098053z"/>
<rect x="9.3465385" y="28" fill="#FFFFFF" width="341.4336853" height="308.5"/>
<rect x="9.3465385" y="28" fill="#808080" width="341.4336853" height="45.5"/>
<rect x="9.3465385" y="321.4140625" fill="#808080" width="341.4336853" height="15.0859375"/>
<g>
	<path fill="#FFFFFF" d="M170.2469177,329.5058594h-2.1181641v2.1875h-1.1035156v-5.3535156h3.4863281v0.8945312h-2.3828125
		v1.3818359h2.1181641V329.5058594z"/>
	<path fill="#FFFFFF" d="M175.547699,329.1386719c0,0.5273438-0.0927734,0.9882812-0.2792969,1.3857422
		s-0.453125,0.7041016-0.7998047,0.9189453c-0.3466797,0.2167969-0.7441406,0.3242188-1.1923828,0.3242188
		c-0.4443359,0-0.8398438-0.1074219-1.1875-0.3203125c-0.3486328-0.2128906-0.6181641-0.5175781-0.8095703-0.9140625
		c-0.1914062-0.3945312-0.2880859-0.8505859-0.2900391-1.3652344v-0.2646484c0-0.5273438,0.0947266-0.9912109,0.2851562-1.3916016
		c0.1894531-0.4003906,0.4580078-0.7089844,0.8046875-0.9228516c0.3466797-0.2148438,0.7431641-0.3212891,1.1894531-0.3212891
		s0.8427734,0.1064453,1.1894531,0.3212891c0.3466797,0.2138672,0.6152344,0.5224609,0.8056641,0.9228516
		c0.1894531,0.4003906,0.2841797,0.8632812,0.2841797,1.3876953V329.1386719z M174.4305115,328.8964844
		c0-0.5625-0.1005859-0.9882812-0.3017578-1.2802734s-0.4873047-0.4375-0.8603516-0.4375
		c-0.3701172,0-0.6552734,0.1435547-0.8564453,0.4326172c-0.2011719,0.2871094-0.3027344,0.7099609-0.3056641,1.265625v0.2617188
		c0,0.546875,0.1005859,0.9707031,0.3017578,1.2714844c0.2011719,0.3017578,0.4902344,0.453125,0.8681641,0.453125
		c0.3701172,0,0.6542969-0.1455078,0.8525391-0.4355469c0.1982422-0.2910156,0.2988281-0.7148438,0.3017578-1.2714844V328.8964844z"
		/>
	<path fill="#FFFFFF" d="M180.7469177,329.1386719c0,0.5273438-0.0927734,0.9882812-0.2792969,1.3857422
		s-0.453125,0.7041016-0.7998047,0.9189453c-0.3466797,0.2167969-0.7441406,0.3242188-1.1923828,0.3242188
		c-0.4443359,0-0.8398438-0.1074219-1.1875-0.3203125c-0.3486328-0.2128906-0.6181641-0.5175781-0.8095703-0.9140625
		c-0.1914062-0.3945312-0.2880859-0.8505859-0.2900391-1.3652344v-0.2646484c0-0.5273438,0.0947266-0.9912109,0.2851562-1.3916016
		c0.1894531-0.4003906,0.4580078-0.7089844,0.8046875-0.9228516c0.3466797-0.2148438,0.7431641-0.3212891,1.1894531-0.3212891
		s0.8427734,0.1064453,1.1894531,0.3212891c0.3466797,0.2138672,0.6152344,0.5224609,0.8056641,0.9228516
		c0.1894531,0.4003906,0.2841797,0.8632812,0.2841797,1.3876953V329.1386719z M179.6297302,328.8964844
		c0-0.5625-0.1005859-0.9882812-0.3017578-1.2802734s-0.4873047-0.4375-0.8603516-0.4375
		c-0.3701172,0-0.6552734,0.1435547-0.8564453,0.4326172c-0.2011719,0.2871094-0.3027344,0.7099609-0.3056641,1.265625v0.2617188
		c0,0.546875,0.1005859,0.9707031,0.3017578,1.2714844c0.2011719,0.3017578,0.4902344,0.453125,0.8681641,0.453125
		c0.3701172,0,0.6542969-0.1455078,0.8525391-0.4355469c0.1982422-0.2910156,0.2988281-0.7148438,0.3017578-1.2714844V328.8964844z"
		/>
	<path fill="#FFFFFF" d="M185.266449,327.234375h-1.6396484v4.4589844h-1.1035156v-4.4589844h-1.6171875v-0.8945312h4.3603516
		V327.234375z"/>
	<path fill="#FFFFFF" d="M189.1160583,329.3740234h-2.1181641v1.4335938h2.4853516v0.8857422h-3.5888672v-5.3535156h3.5820312
		v0.8945312h-2.4785156v1.2753906h2.1181641V329.3740234z"/>
	<path fill="#FFFFFF" d="M192.1121521,329.734375h-0.8789062v1.9589844h-1.1035156v-5.3535156h1.9892578
		c0.6328125,0,1.1201172,0.1416016,1.4638672,0.4238281c0.3427734,0.28125,0.5146484,0.6796875,0.5146484,1.1953125
		c0,0.3652344-0.0791016,0.6689453-0.2373047,0.9130859c-0.1582031,0.2431641-0.3974609,0.4384766-0.71875,0.5830078
		l1.1582031,2.1875v0.0507812h-1.1835938L192.1121521,329.734375z M191.2332458,328.8408203h0.8896484
		c0.2773438,0,0.4912109-0.0712891,0.6435547-0.2119141s0.2275391-0.3349609,0.2275391-0.5820312
		c0-0.2529297-0.0712891-0.4511719-0.2148438-0.5957031s-0.3632812-0.2167969-0.6601562-0.2167969h-0.8857422V328.8408203z"/>
</g>
<g>
	<path fill="#FFFFFF" d="M133.047699,54.0908203h-1.9335938l-0.3681641,1.1030273h-1.1728516l1.9931641-5.3535156h1.0224609
		l2.0039062,5.3535156h-1.1728516L133.047699,54.0908203z M131.4119568,53.1972656h1.3378906l-0.6728516-2.0039062
		L131.4119568,53.1972656z"/>
	<path fill="#FFFFFF" d="M139.2176208,53.4106445c-0.0419922,0.5761719-0.2548828,1.0292969-0.6376953,1.3603516
		c-0.3837891,0.3310547-0.8896484,0.496582-1.5166016,0.496582c-0.6865234,0-1.2265625-0.230957-1.6201172-0.6933594
		c-0.3935547-0.4619141-0.5898438-1.0961914-0.5898438-1.902832v-0.3271484c0-0.5146484,0.0908203-0.9682617,0.2714844-1.3603516
		c0.1816406-0.3920898,0.4414062-0.6928711,0.7783203-0.9023438c0.3369141-0.2099609,0.7285156-0.3144531,1.1748047-0.3144531
		c0.6171875,0,1.1152344,0.1655273,1.4921875,0.4960938c0.3779297,0.3310547,0.5957031,0.7954102,0.6542969,1.3935547h-1.1025391
		c-0.0273438-0.3457031-0.1230469-0.5961914-0.2890625-0.7519531c-0.1650391-0.1552734-0.4169922-0.2333984-0.7548828-0.2333984
		c-0.3681641,0-0.6435547,0.1318359-0.8261719,0.3955078c-0.1826172,0.2631836-0.2763672,0.671875-0.28125,1.2260742v0.4042969
		c0,0.5786133,0.0878906,1.0014648,0.2636719,1.2685547c0.1748047,0.2670898,0.4511719,0.4008789,0.8291016,0.4008789
		c0.3398438,0,0.5947266-0.078125,0.7626953-0.2333984c0.1679688-0.1557617,0.2636719-0.3964844,0.2880859-0.7226562H139.2176208z"
		/>
	<path fill="#FFFFFF" d="M144.1443787,53.4106445c-0.0419922,0.5761719-0.2548828,1.0292969-0.6376953,1.3603516
		c-0.3837891,0.3310547-0.8896484,0.496582-1.5166016,0.496582c-0.6865234,0-1.2265625-0.230957-1.6201172-0.6933594
		c-0.3935547-0.4619141-0.5898438-1.0961914-0.5898438-1.902832v-0.3271484c0-0.5146484,0.0908203-0.9682617,0.2714844-1.3603516
		c0.1816406-0.3920898,0.4414062-0.6928711,0.7783203-0.9023438c0.3369141-0.2099609,0.7285156-0.3144531,1.1748047-0.3144531
		c0.6171875,0,1.1152344,0.1655273,1.4921875,0.4960938c0.3779297,0.3310547,0.5957031,0.7954102,0.6542969,1.3935547h-1.1025391
		c-0.0273438-0.3457031-0.1230469-0.5961914-0.2890625-0.7519531c-0.1650391-0.1552734-0.4169922-0.2333984-0.7548828-0.2333984
		c-0.3681641,0-0.6435547,0.1318359-0.8261719,0.3955078c-0.1826172,0.2631836-0.2763672,0.671875-0.28125,1.2260742v0.4042969
		c0,0.5786133,0.0878906,1.0014648,0.2636719,1.2685547c0.1748047,0.2670898,0.4511719,0.4008789,0.8291016,0.4008789
		c0.3398438,0,0.5947266-0.078125,0.7626953-0.2333984c0.1679688-0.1557617,0.2636719-0.3964844,0.2880859-0.7226562H144.1443787z"
		/>
	<path fill="#FFFFFF" d="M148.9197693,49.840332v3.5263672c0,0.5854492-0.1826172,1.0488281-0.5488281,1.3896484
		c-0.3671875,0.3408203-0.8671875,0.5112305-1.5019531,0.5112305c-0.625,0-1.1220703-0.1655273-1.4892578-0.496582
		c-0.3681641-0.3310547-0.5556641-0.7856445-0.5625-1.3642578V49.840332h1.1025391v3.5336914
		c0,0.3505859,0.0839844,0.605957,0.2519531,0.7666016s0.4003906,0.2407227,0.6972656,0.2407227
		c0.6201172,0,0.9345703-0.3261719,0.9443359-0.9780273V49.840332H148.9197693z"/>
	<path fill="#FFFFFF" d="M153.0457458,52.8740234h-2.1181641v1.4335938h2.4853516v0.8862305h-3.5888672V49.840332h3.5820312
		v0.8935547h-2.4785156v1.2758789h2.1181641V52.8740234z"/>
	<path fill="#FFFFFF" d="M155.2332458,55.1938477h-1.1025391V49.840332h1.1025391V55.1938477z"/>
	<path fill="#FFFFFF" d="M157.3582458,54.3076172h2.3417969v0.8862305h-3.4453125V49.840332h1.1035156V54.3076172z"/>
</g>
<g>
	<path fill="#FFFFFF" d="M170.6443787,53.3076172v1.8862305h-1.1035156V49.840332h2.0888672
		c0.4023438,0,0.7558594,0.0737305,1.0605469,0.2207031c0.3056641,0.1469727,0.5400391,0.355957,0.7041016,0.6269531
		s0.2460938,0.5791016,0.2460938,0.9248047c0,0.5244141-0.1787109,0.9379883-0.5380859,1.2407227
		s-0.8564453,0.4541016-1.4912109,0.4541016H170.6443787z M170.6443787,52.4140625h0.9853516
		c0.2919922,0,0.5136719-0.0683594,0.6669922-0.2055664s0.2304688-0.3334961,0.2304688-0.5883789
		c0-0.262207-0.0771484-0.4741211-0.2324219-0.6362305c-0.1542969-0.1616211-0.3671875-0.2451172-0.6396484-0.25h-1.0107422
		V52.4140625z"/>
	<path fill="#FFFFFF" d="M178.7957458,52.6386719c0,0.5268555-0.0927734,0.9887695-0.2792969,1.3857422
		c-0.1865234,0.3974609-0.453125,0.7036133-0.7998047,0.9194336s-0.7441406,0.3237305-1.1923828,0.3237305
		c-0.4443359,0-0.8398438-0.1069336-1.1875-0.3203125c-0.3486328-0.2128906-0.6181641-0.5175781-0.8095703-0.9135742
		c-0.1914062-0.3955078-0.2880859-0.8510742-0.2900391-1.3657227v-0.2646484c0-0.5273438,0.0947266-0.9912109,0.2851562-1.3916016
		c0.1894531-0.4008789,0.4580078-0.7084961,0.8046875-0.9228516c0.3466797-0.2148438,0.7431641-0.3217773,1.1894531-0.3217773
		s0.8427734,0.1069336,1.1894531,0.3217773c0.3466797,0.2143555,0.6152344,0.5219727,0.8056641,0.9228516
		c0.1894531,0.4003906,0.2841797,0.8632812,0.2841797,1.3876953V52.6386719z M177.6785583,52.3959961
		c0-0.5615234-0.1005859-0.987793-0.3017578-1.2797852c-0.2011719-0.2915039-0.4873047-0.4375-0.8603516-0.4375
		c-0.3701172,0-0.6552734,0.144043-0.8564453,0.4321289s-0.3027344,0.7104492-0.3056641,1.2666016v0.2612305
		c0,0.5463867,0.1005859,0.9707031,0.3017578,1.2719727s0.4902344,0.4521484,0.8681641,0.4521484
		c0.3701172,0,0.6542969-0.1450195,0.8525391-0.4355469s0.2988281-0.7138672,0.3017578-1.2705078V52.3959961z"/>
	<path fill="#FFFFFF" d="M181.578949,53.234375h-0.8789062v1.9594727h-1.1035156V49.840332h1.9892578
		c0.6328125,0,1.1201172,0.1411133,1.4638672,0.4228516c0.3427734,0.2822266,0.5146484,0.6801758,0.5146484,1.1953125
		c0,0.3652344-0.0791016,0.6694336-0.2373047,0.9135742c-0.1582031,0.2436523-0.3974609,0.4379883-0.71875,0.5825195
		l1.1582031,2.1879883v0.0512695h-1.1835938L181.578949,53.234375z M180.7000427,52.3408203h0.8896484
		c0.2773438,0,0.4912109-0.0708008,0.6435547-0.2114258c0.1523438-0.1411133,0.2275391-0.3354492,0.2275391-0.5830078
		c0-0.2524414-0.0712891-0.4506836-0.2148438-0.5957031c-0.1435547-0.1445312-0.3632812-0.2167969-0.6601562-0.2167969h-0.8857422
		V52.3408203z"/>
	<path fill="#FFFFFF" d="M188.2488708,50.7338867h-1.6396484v4.4599609h-1.1035156v-4.4599609h-1.6171875V49.840332h4.3603516
		V50.7338867z"/>
	<path fill="#FFFFFF" d="M192.0984802,53.0063477h-2.1181641v2.1875h-1.1035156V49.840332h3.4863281v0.8935547h-2.3828125v1.3823242
		h2.1181641V53.0063477z"/>
	<path fill="#FFFFFF" d="M197.3992615,52.6386719c0,0.5268555-0.0927734,0.9887695-0.2792969,1.3857422
		c-0.1865234,0.3974609-0.453125,0.7036133-0.7998047,0.9194336s-0.7441406,0.3237305-1.1923828,0.3237305
		c-0.4443359,0-0.8398438-0.1069336-1.1875-0.3203125c-0.3486328-0.2128906-0.6181641-0.5175781-0.8095703-0.9135742
		c-0.1914062-0.3955078-0.2880859-0.8510742-0.2900391-1.3657227v-0.2646484c0-0.5273438,0.0947266-0.9912109,0.2851562-1.3916016
		c0.1894531-0.4008789,0.4580078-0.7084961,0.8046875-0.9228516c0.3466797-0.2148438,0.7431641-0.3217773,1.1894531-0.3217773
		s0.8427734,0.1069336,1.1894531,0.3217773c0.3466797,0.2143555,0.6152344,0.5219727,0.8056641,0.9228516
		c0.1894531,0.4003906,0.2841797,0.8632812,0.2841797,1.3876953V52.6386719z M196.282074,52.3959961
		c0-0.5615234-0.1005859-0.987793-0.3017578-1.2797852c-0.2011719-0.2915039-0.4873047-0.4375-0.8603516-0.4375
		c-0.3701172,0-0.6552734,0.144043-0.8564453,0.4321289s-0.3027344,0.7104492-0.3056641,1.2666016v0.2612305
		c0,0.5463867,0.1005859,0.9707031,0.3017578,1.2719727s0.4902344,0.4521484,0.8681641,0.4521484
		c0.3701172,0,0.6542969-0.1450195,0.8525391-0.4355469s0.2988281-0.7138672,0.3017578-1.2705078V52.3959961z"/>
	<path fill="#FFFFFF" d="M199.3045349,54.3076172h2.3417969v0.8862305h-3.4453125V49.840332h1.1035156V54.3076172z"/>
	<path fill="#FFFFFF" d="M203.4510193,55.1938477h-1.1025391V49.840332h1.1025391V55.1938477z"/>
	<path fill="#FFFFFF" d="M208.8709412,52.6386719c0,0.5268555-0.0927734,0.9887695-0.2792969,1.3857422
		c-0.1865234,0.3974609-0.453125,0.7036133-0.7998047,0.9194336s-0.7441406,0.3237305-1.1923828,0.3237305
		c-0.4443359,0-0.8398438-0.1069336-1.1875-0.3203125c-0.3486328-0.2128906-0.6181641-0.5175781-0.8095703-0.9135742
		c-0.1914062-0.3955078-0.2880859-0.8510742-0.2900391-1.3657227v-0.2646484c0-0.5273438,0.0947266-0.9912109,0.2851562-1.3916016
		c0.1894531-0.4008789,0.4580078-0.7084961,0.8046875-0.9228516c0.3466797-0.2148438,0.7431641-0.3217773,1.1894531-0.3217773
		s0.8427734,0.1069336,1.1894531,0.3217773c0.3466797,0.2143555,0.6152344,0.5219727,0.8056641,0.9228516
		c0.1894531,0.4003906,0.2841797,0.8632812,0.2841797,1.3876953V52.6386719z M207.7537537,52.3959961
		c0-0.5615234-0.1005859-0.987793-0.3017578-1.2797852c-0.2011719-0.2915039-0.4873047-0.4375-0.8603516-0.4375
		c-0.3701172,0-0.6552734,0.144043-0.8564453,0.4321289s-0.3027344,0.7104492-0.3056641,1.2666016v0.2612305
		c0,0.5463867,0.1005859,0.9707031,0.3017578,1.2719727s0.4902344,0.4521484,0.8681641,0.4521484
		c0.3701172,0,0.6542969-0.1450195,0.8525391-0.4355469s0.2988281-0.7138672,0.3017578-1.2705078V52.3959961z"/>
</g>
<g>
	<path fill="#FFFFFF" d="M224.078949,54.0908203h-1.9335938l-0.3681641,1.1030273h-1.1728516l1.9931641-5.3535156h1.0224609
		l2.0039062,5.3535156h-1.1728516L224.078949,54.0908203z M223.6531677,49.5463867h-0.8720703l-1.0146484-1.1396484h1.1582031
		L223.6531677,49.5463867z M222.4432068,53.1972656h1.3378906l-0.6728516-2.0039062L222.4432068,53.1972656z"/>
	<path fill="#FFFFFF" d="M229.1014099,53.3076172v1.8862305h-1.1035156V49.840332h2.0888672
		c0.4023438,0,0.7558594,0.0737305,1.0605469,0.2207031c0.3056641,0.1469727,0.5400391,0.355957,0.7041016,0.6269531
		s0.2460938,0.5791016,0.2460938,0.9248047c0,0.5244141-0.1787109,0.9379883-0.5380859,1.2407227
		s-0.8564453,0.4541016-1.4912109,0.4541016H229.1014099z M229.1014099,52.4140625h0.9853516
		c0.2919922,0,0.5136719-0.0683594,0.6669922-0.2055664s0.2304688-0.3334961,0.2304688-0.5883789
		c0-0.262207-0.0771484-0.4741211-0.2324219-0.6362305c-0.1542969-0.1616211-0.3671875-0.2451172-0.6396484-0.25h-1.0107422
		V52.4140625z"/>
	<path fill="#FFFFFF" d="M234.837738,53.234375h-0.8789062v1.9594727h-1.1035156V49.840332h1.9892578
		c0.6328125,0,1.1201172,0.1411133,1.4638672,0.4228516c0.3427734,0.2822266,0.5146484,0.6801758,0.5146484,1.1953125
		c0,0.3652344-0.0791016,0.6694336-0.2373047,0.9135742c-0.1582031,0.2436523-0.3974609,0.4379883-0.71875,0.5825195
		l1.1582031,2.1879883v0.0512695h-1.1835938L234.837738,53.234375z M233.9588318,52.3408203h0.8896484
		c0.2773438,0,0.4912109-0.0708008,0.6435547-0.2114258c0.1523438-0.1411133,0.2275391-0.3354492,0.2275391-0.5830078
		c0-0.2524414-0.0712891-0.4506836-0.2148438-0.5957031c-0.1435547-0.1445312-0.3632812-0.2167969-0.6601562-0.2167969h-0.8857422
		V52.3408203z"/>
	<path fill="#FFFFFF" d="M242.0584412,52.6386719c0,0.5268555-0.0927734,0.9887695-0.2792969,1.3857422
		c-0.1865234,0.3974609-0.453125,0.7036133-0.7998047,0.9194336s-0.7441406,0.3237305-1.1923828,0.3237305
		c-0.4443359,0-0.8398438-0.1069336-1.1875-0.3203125c-0.3486328-0.2128906-0.6181641-0.5175781-0.8095703-0.9135742
		c-0.1914062-0.3955078-0.2880859-0.8510742-0.2900391-1.3657227v-0.2646484c0-0.5273438,0.0947266-0.9912109,0.2851562-1.3916016
		c0.1894531-0.4008789,0.4580078-0.7084961,0.8046875-0.9228516c0.3466797-0.2148438,0.7431641-0.3217773,1.1894531-0.3217773
		s0.8427734,0.1069336,1.1894531,0.3217773c0.3466797,0.2143555,0.6152344,0.5219727,0.8056641,0.9228516
		c0.1894531,0.4003906,0.2841797,0.8632812,0.2841797,1.3876953V52.6386719z M240.9412537,52.3959961
		c0-0.5615234-0.1005859-0.987793-0.3017578-1.2797852c-0.2011719-0.2915039-0.4873047-0.4375-0.8603516-0.4375
		c-0.3701172,0-0.6552734,0.144043-0.8564453,0.4321289s-0.3027344,0.7104492-0.3056641,1.2666016v0.2612305
		c0,0.5463867,0.1005859,0.9707031,0.3017578,1.2719727s0.4902344,0.4521484,0.8681641,0.4521484
		c0.3701172,0,0.6542969-0.1450195,0.8525391-0.4355469s0.2988281-0.7138672,0.3017578-1.2705078V52.3959961z"/>
	<path fill="#FFFFFF" d="M243.962738,53.3076172v1.8862305h-1.1035156V49.840332h2.0888672
		c0.4023438,0,0.7558594,0.0737305,1.0605469,0.2207031c0.3056641,0.1469727,0.5400391,0.355957,0.7041016,0.6269531
		s0.2460938,0.5791016,0.2460938,0.9248047c0,0.5244141-0.1787109,0.9379883-0.5380859,1.2407227
		s-0.8564453,0.4541016-1.4912109,0.4541016H243.962738z M243.962738,52.4140625h0.9853516
		c0.2919922,0,0.5136719-0.0683594,0.6669922-0.2055664s0.2304688-0.3334961,0.2304688-0.5883789
		c0-0.262207-0.0771484-0.4741211-0.2324219-0.6362305c-0.1542969-0.1616211-0.3671875-0.2451172-0.6396484-0.25h-1.0107422
		V52.4140625z"/>
	<path fill="#FFFFFF" d="M252.1141052,52.6386719c0,0.5268555-0.0927734,0.9887695-0.2792969,1.3857422
		c-0.1865234,0.3974609-0.453125,0.7036133-0.7998047,0.9194336s-0.7441406,0.3237305-1.1923828,0.3237305
		c-0.4443359,0-0.8398438-0.1069336-1.1875-0.3203125c-0.3486328-0.2128906-0.6181641-0.5175781-0.8095703-0.9135742
		c-0.1914062-0.3955078-0.2880859-0.8510742-0.2900391-1.3657227v-0.2646484c0-0.5273438,0.0947266-0.9912109,0.2851562-1.3916016
		c0.1894531-0.4008789,0.4580078-0.7084961,0.8046875-0.9228516c0.3466797-0.2148438,0.7431641-0.3217773,1.1894531-0.3217773
		s0.8427734,0.1069336,1.1894531,0.3217773c0.3466797,0.2143555,0.6152344,0.5219727,0.8056641,0.9228516
		c0.1894531,0.4003906,0.2841797,0.8632812,0.2841797,1.3876953V52.6386719z M250.9969177,52.3959961
		c0-0.5615234-0.1005859-0.987793-0.3017578-1.2797852c-0.2011719-0.2915039-0.4873047-0.4375-0.8603516-0.4375
		c-0.3701172,0-0.6552734,0.144043-0.8564453,0.4321289s-0.3027344,0.7104492-0.3056641,1.2666016v0.2612305
		c0,0.5463867,0.1005859,0.9707031,0.3017578,1.2719727s0.4902344,0.4521484,0.8681641,0.4521484
		c0.3701172,0,0.6542969-0.1450195,0.8525391-0.4355469s0.2988281-0.7138672,0.3017578-1.2705078V52.3959961z"/>
	<path fill="#FFFFFF" d="M255.6922302,53.7895508c0-0.2084961-0.0732422-0.3686523-0.2207031-0.4799805
		c-0.1464844-0.1113281-0.4121094-0.2290039-0.7939453-0.3530273c-0.3828125-0.1235352-0.6855469-0.2456055-0.9082031-0.3657227
		c-0.6083984-0.3286133-0.9121094-0.7709961-0.9121094-1.3276367c0-0.2890625,0.0820312-0.546875,0.2451172-0.7739258
		c0.1621094-0.2265625,0.3964844-0.4038086,0.7021484-0.53125c0.3046875-0.1274414,0.6474609-0.190918,1.0273438-0.190918
		c0.3828125,0,0.7226562,0.0693359,1.0224609,0.2075195c0.2988281,0.1386719,0.53125,0.3339844,0.6962891,0.5864258
		c0.1660156,0.2524414,0.2480469,0.5395508,0.2480469,0.8603516h-1.1025391c0-0.2451172-0.0771484-0.4355469-0.2314453-0.5717773
		c-0.1552734-0.1357422-0.3720703-0.2041016-0.6513672-0.2041016c-0.2695312,0-0.4794922,0.0571289-0.6289062,0.1713867
		c-0.1494141,0.1137695-0.2236328,0.2641602-0.2236328,0.4501953c0,0.1738281,0.0869141,0.3198242,0.2626953,0.4375
		c0.1748047,0.1176758,0.4335938,0.2280273,0.7734375,0.3310547c0.6279297,0.1884766,1.0849609,0.4228516,1.3720703,0.7021484
		c0.2861328,0.2792969,0.4296875,0.6274414,0.4296875,1.0439453c0,0.4633789-0.1748047,0.8271484-0.5253906,1.090332
		c-0.3505859,0.2636719-0.8222656,0.3955078-1.4160156,0.3955078c-0.4111328,0-0.7861328-0.0756836-1.125-0.2260742
		c-0.3378906-0.1508789-0.5957031-0.3574219-0.7734375-0.6196289s-0.2666016-0.5664062-0.2666016-0.9121094h1.1064453
		c0,0.5908203,0.3525391,0.8862305,1.0585938,0.8862305c0.2626953,0,0.4677734-0.0532227,0.6142578-0.1601562
		C255.618988,54.1293945,255.6922302,53.9804688,255.6922302,53.7895508z"/>
</g>
<g>
	<path fill="#FFFFFF" d="M273.775238,53.4106445c-0.0419922,0.5761719-0.2548828,1.0292969-0.6376953,1.3603516
		c-0.3837891,0.3310547-0.8896484,0.496582-1.5166016,0.496582c-0.6865234,0-1.2265625-0.230957-1.6201172-0.6933594
		c-0.3935547-0.4619141-0.5898438-1.0961914-0.5898438-1.902832v-0.3271484c0-0.5146484,0.0908203-0.9682617,0.2714844-1.3603516
		c0.1816406-0.3920898,0.4414062-0.6928711,0.7783203-0.9023438c0.3369141-0.2099609,0.7285156-0.3144531,1.1748047-0.3144531
		c0.6171875,0,1.1152344,0.1655273,1.4921875,0.4960938c0.3779297,0.3310547,0.5957031,0.7954102,0.6542969,1.3935547h-1.1025391
		c-0.0273438-0.3457031-0.1230469-0.5961914-0.2890625-0.7519531c-0.1650391-0.1552734-0.4169922-0.2333984-0.7548828-0.2333984
		c-0.3681641,0-0.6435547,0.1318359-0.8261719,0.3955078c-0.1826172,0.2631836-0.2763672,0.671875-0.28125,1.2260742v0.4042969
		c0,0.5786133,0.0878906,1.0014648,0.2636719,1.2685547c0.1748047,0.2670898,0.4511719,0.4008789,0.8291016,0.4008789
		c0.3398438,0,0.5947266-0.078125,0.7626953-0.2333984c0.1679688-0.1557617,0.2636719-0.3964844,0.2880859-0.7226562H273.775238z"/>
	<path fill="#FFFFFF" d="M278.8963318,52.6386719c0,0.5268555-0.0927734,0.9887695-0.2792969,1.3857422
		c-0.1865234,0.3974609-0.453125,0.7036133-0.7998047,0.9194336s-0.7441406,0.3237305-1.1923828,0.3237305
		c-0.4443359,0-0.8398438-0.1069336-1.1875-0.3203125c-0.3486328-0.2128906-0.6181641-0.5175781-0.8095703-0.9135742
		c-0.1914062-0.3955078-0.2880859-0.8510742-0.2900391-1.3657227v-0.2646484c0-0.5273438,0.0947266-0.9912109,0.2851562-1.3916016
		c0.1894531-0.4008789,0.4580078-0.7084961,0.8046875-0.9228516c0.3466797-0.2148438,0.7431641-0.3217773,1.1894531-0.3217773
		s0.8427734,0.1069336,1.1894531,0.3217773c0.3466797,0.2143555,0.6152344,0.5219727,0.8056641,0.9228516
		c0.1894531,0.4003906,0.2841797,0.8632812,0.2841797,1.3876953V52.6386719z M277.7791443,52.3959961
		c0-0.5615234-0.1005859-0.987793-0.3017578-1.2797852c-0.2011719-0.2915039-0.4873047-0.4375-0.8603516-0.4375
		c-0.3701172,0-0.6552734,0.144043-0.8564453,0.4321289s-0.3027344,0.7104492-0.3056641,1.2666016v0.2612305
		c0,0.5463867,0.1005859,0.9707031,0.3017578,1.2719727s0.4902344,0.4521484,0.8681641,0.4521484
		c0.3701172,0,0.6542969-0.1450195,0.8525391-0.4355469s0.2988281-0.7138672,0.3017578-1.2705078V52.3959961z"/>
	<path fill="#FFFFFF" d="M284.0516052,55.1938477h-1.1025391l-2.1474609-3.5224609v3.5224609h-1.1035156V49.840332h1.1035156
		l2.1503906,3.5297852V49.840332h1.0996094V55.1938477z"/>
	<path fill="#FFFFFF" d="M288.938324,50.7338867h-1.6396484v4.4599609h-1.1035156v-4.4599609h-1.6171875V49.840332h4.3603516
		V50.7338867z"/>
	<path fill="#FFFFFF" d="M292.1473083,54.0908203h-1.9335938l-0.3681641,1.1030273h-1.1728516l1.9931641-5.3535156h1.0224609
		l2.0039062,5.3535156h-1.1728516L292.1473083,54.0908203z M290.5115662,53.1972656h1.3378906l-0.6728516-2.0039062
		L290.5115662,53.1972656z"/>
	<path fill="#FFFFFF" d="M298.3172302,53.4106445c-0.0419922,0.5761719-0.2548828,1.0292969-0.6376953,1.3603516
		c-0.3837891,0.3310547-0.8896484,0.496582-1.5166016,0.496582c-0.6865234,0-1.2265625-0.230957-1.6201172-0.6933594
		c-0.3935547-0.4619141-0.5898438-1.0961914-0.5898438-1.902832v-0.3271484c0-0.5146484,0.0908203-0.9682617,0.2714844-1.3603516
		c0.1816406-0.3920898,0.4414062-0.6928711,0.7783203-0.9023438c0.3369141-0.2099609,0.7285156-0.3144531,1.1748047-0.3144531
		c0.6171875,0,1.1152344,0.1655273,1.4921875,0.4960938c0.3779297,0.3310547,0.5957031,0.7954102,0.6542969,1.3935547h-1.1025391
		c-0.0273438-0.3457031-0.1230469-0.5961914-0.2890625-0.7519531c-0.1650391-0.1552734-0.4169922-0.2333984-0.7548828-0.2333984
		c-0.3681641,0-0.6435547,0.1318359-0.8261719,0.3955078c-0.1826172,0.2631836-0.2763672,0.671875-0.28125,1.2260742v0.4042969
		c0,0.5786133,0.0878906,1.0014648,0.2636719,1.2685547c0.1748047,0.2670898,0.4511719,0.4008789,0.8291016,0.4008789
		c0.3398438,0,0.5947266-0.078125,0.7626953-0.2333984c0.1679688-0.1557617,0.2636719-0.3964844,0.2880859-0.7226562H298.3172302z"
		/>
	<path fill="#FFFFFF" d="M302.9646912,50.7338867h-1.6396484v4.4599609h-1.1035156v-4.4599609h-1.6171875V49.840332h4.3603516
		V50.7338867z"/>
</g>
<rect x="53.5696945" y="39.5" fill="#FFFFFF" width="61.9980469" height="25"/>
<g>
	<path fill="#808080" d="M76.4651794,54.3076172h2.3417969v0.8862305h-3.4453125V49.840332h1.1035156V54.3076172z"/>
	<path fill="#808080" d="M83.6009216,52.6386719c0,0.5268555-0.0927734,0.9887695-0.2792969,1.3857422
		c-0.1865234,0.3974609-0.453125,0.7036133-0.7998047,0.9194336s-0.7441406,0.3237305-1.1923828,0.3237305
		c-0.4443359,0-0.8398438-0.1069336-1.1875-0.3203125c-0.3486328-0.2128906-0.6181641-0.5175781-0.8095703-0.9135742
		c-0.1914062-0.3955078-0.2880859-0.8510742-0.2900391-1.3657227v-0.2646484c0-0.5273438,0.0947266-0.9912109,0.2851562-1.3916016
		c0.1894531-0.4008789,0.4580078-0.7084961,0.8046875-0.9228516c0.3466797-0.2148438,0.7431641-0.3217773,1.1894531-0.3217773
		s0.8427734,0.1069336,1.1894531,0.3217773c0.3466797,0.2143555,0.6152344,0.5219727,0.8056641,0.9228516
		c0.1894531,0.4003906,0.2841797,0.8632812,0.2841797,1.3876953V52.6386719z M82.4837341,52.3959961
		c0-0.5615234-0.1005859-0.987793-0.3017578-1.2797852c-0.2011719-0.2915039-0.4873047-0.4375-0.8603516-0.4375
		c-0.3701172,0-0.6552734,0.144043-0.8564453,0.4321289s-0.3027344,0.7104492-0.3056641,1.2666016v0.2612305
		c0,0.5463867,0.1005859,0.9707031,0.3017578,1.2719727s0.4902344,0.4521484,0.8681641,0.4521484
		c0.3701172,0,0.6542969-0.1450195,0.8525391-0.4355469s0.2988281-0.7138672,0.3017578-1.2705078V52.3959961z"/>
	<path fill="#808080" d="M88.6390076,54.5170898c-0.1992188,0.237793-0.4794922,0.4223633-0.8417969,0.5537109
		c-0.3632812,0.1308594-0.765625,0.1967773-1.2060547,0.1967773c-0.4638672,0-0.8701172-0.1010742-1.21875-0.3037109
		c-0.3496094-0.2021484-0.6191406-0.4956055-0.8095703-0.8803711c-0.1894531-0.3847656-0.2871094-0.8369141-0.2919922-1.3569336
		V52.362793c0-0.5341797,0.0898438-0.9970703,0.2705078-1.3881836c0.1796875-0.390625,0.4394531-0.6899414,0.7792969-0.8969727
		c0.3388672-0.2070312,0.7373047-0.3105469,1.1933594-0.3105469c0.6347656,0,1.1308594,0.1513672,1.4882812,0.4541016
		c0.3583984,0.3027344,0.5703125,0.7431641,0.6367188,1.3217773h-1.0742188
		c-0.0488281-0.3066406-0.1572266-0.5307617-0.3251953-0.6728516s-0.3984375-0.2133789-0.6933594-0.2133789
		c-0.375,0-0.6601562,0.1411133-0.8564453,0.4228516s-0.2949219,0.7011719-0.2978516,1.2573242v0.3422852
		c0,0.5610352,0.1064453,0.9853516,0.3203125,1.2719727c0.2128906,0.2866211,0.5253906,0.4301758,0.9375,0.4301758
		c0.4140625,0,0.7089844-0.0883789,0.8857422-0.2646484v-0.9228516h-1.0039062v-0.8125h2.1074219V54.5170898z"/>
	<path fill="#808080" d="M93.9290466,52.6386719c0,0.5268555-0.0927734,0.9887695-0.2792969,1.3857422
		c-0.1865234,0.3974609-0.453125,0.7036133-0.7998047,0.9194336s-0.7441406,0.3237305-1.1923828,0.3237305
		c-0.4443359,0-0.8398438-0.1069336-1.1875-0.3203125c-0.3486328-0.2128906-0.6181641-0.5175781-0.8095703-0.9135742
		c-0.1914062-0.3955078-0.2880859-0.8510742-0.2900391-1.3657227v-0.2646484c0-0.5273438,0.0947266-0.9912109,0.2851562-1.3916016
		c0.1894531-0.4008789,0.4580078-0.7084961,0.8046875-0.9228516c0.3466797-0.2148438,0.7431641-0.3217773,1.1894531-0.3217773
		s0.8427734,0.1069336,1.1894531,0.3217773c0.3466797,0.2143555,0.6152344,0.5219727,0.8056641,0.9228516
		c0.1894531,0.4003906,0.2841797,0.8632812,0.2841797,1.3876953V52.6386719z M92.8118591,52.3959961
		c0-0.5615234-0.1005859-0.987793-0.3017578-1.2797852c-0.2011719-0.2915039-0.4873047-0.4375-0.8603516-0.4375
		c-0.3701172,0-0.6552734,0.144043-0.8564453,0.4321289s-0.3027344,0.7104492-0.3056641,1.2666016v0.2612305
		c0,0.5463867,0.1005859,0.9707031,0.3017578,1.2719727s0.4902344,0.4521484,0.8681641,0.4521484
		c0.3701172,0,0.6542969-0.1450195,0.8525391-0.4355469s0.2988281-0.7138672,0.3017578-1.2705078V52.3959961z"/>
</g>
<rect x="21.5696735" y="113.140625" fill="#EEEEEE" width="90.8881836" height="197.859375"/>
<rect x="121.6192856" y="113.140625" fill="#EEEEEE" width="218.9164734" height="30.359375"/>
<rect x="121.6192856" y="151.890625" fill="#EEEEEE" width="218.9164734" height="159.109375"/>
<g>
	<path fill="#808080" d="M48.8772888,196.7890625c0-0.2080078-0.0732422-0.3681641-0.2207031-0.4794922
		c-0.1464844-0.1113281-0.4121094-0.2294922-0.7939453-0.3525391c-0.3828125-0.1240234-0.6855469-0.2460938-0.9082031-0.3662109
		c-0.6083984-0.3291016-0.9121094-0.7705078-0.9121094-1.3271484c0-0.2890625,0.0820312-0.546875,0.2451172-0.7744141
		c0.1621094-0.2265625,0.3964844-0.4033203,0.7021484-0.53125c0.3046875-0.1279297,0.6474609-0.1904297,1.0273438-0.1904297
		c0.3828125,0,0.7226562,0.0683594,1.0224609,0.2070312c0.2988281,0.1386719,0.53125,0.3339844,0.6962891,0.5859375
		c0.1660156,0.2529297,0.2480469,0.5400391,0.2480469,0.8613281h-1.1025391c0-0.2460938-0.0771484-0.4355469-0.2314453-0.5722656
		c-0.1552734-0.1357422-0.3720703-0.2041016-0.6513672-0.2041016c-0.2695312,0-0.4794922,0.0576172-0.6289062,0.1708984
		c-0.1494141,0.1142578-0.2236328,0.2646484-0.2236328,0.4511719c0,0.1738281,0.0869141,0.3193359,0.2626953,0.4375
		c0.1748047,0.1171875,0.4335938,0.2275391,0.7734375,0.3300781c0.6279297,0.1894531,1.0849609,0.4238281,1.3720703,0.703125
		c0.2861328,0.2792969,0.4296875,0.6269531,0.4296875,1.0429688c0,0.4638672-0.1748047,0.828125-0.5253906,1.0908203
		c-0.3505859,0.2636719-0.8222656,0.3955078-1.4160156,0.3955078c-0.4111328,0-0.7861328-0.0761719-1.125-0.2265625
		c-0.3378906-0.1503906-0.5957031-0.3574219-0.7734375-0.6191406s-0.2666016-0.5664062-0.2666016-0.9121094h1.1064453
		c0,0.5908203,0.3525391,0.8867188,1.0585938,0.8867188c0.2626953,0,0.4677734-0.0537109,0.6142578-0.1601562
		C48.8040466,197.1289062,48.8772888,196.9804688,48.8772888,196.7890625z"/>
	<path fill="#808080" d="M51.9026794,198.1933594h-1.1025391v-5.3535156h1.1025391V198.1933594z"/>
	<path fill="#808080" d="M52.9251404,198.1933594v-5.3535156h1.6474609c0.4707031,0,0.8916016,0.1074219,1.2626953,0.3183594
		c0.3720703,0.2128906,0.6611328,0.5136719,0.8701172,0.9042969c0.2080078,0.3916016,0.3125,0.8359375,0.3125,1.3339844v0.2460938
		c0,0.4970703-0.1025391,0.9394531-0.3066406,1.3271484c-0.2050781,0.3876953-0.4941406,0.6875-0.8662109,0.9003906
		c-0.3730469,0.2138672-0.7929688,0.3212891-1.2617188,0.3232422H52.9251404z M54.028656,193.734375v3.5732422h0.5332031
		c0.4316406,0,0.7607422-0.140625,0.9892578-0.4228516c0.2275391-0.28125,0.34375-0.6855469,0.3486328-1.2089844v-0.2832031
		c0-0.5449219-0.1123047-0.9570312-0.3378906-1.2382812c-0.2255859-0.2792969-0.5556641-0.4199219-0.9892578-0.4199219H54.028656z"
		/>
	<path fill="#808080" d="M61.0403748,195.8740234h-2.1181641v1.4335938h2.4853516v0.8857422h-3.5888672v-5.3535156h3.5820312
		v0.8945312h-2.4785156v1.2753906h2.1181641V195.8740234z"/>
	<path fill="#808080" d="M62.0540466,198.1933594v-5.3535156h1.8759766c0.6494141,0,1.1416016,0.125,1.4775391,0.3740234
		s0.5039062,0.6132812,0.5039062,1.09375c0,0.2626953-0.0673828,0.4931641-0.2021484,0.6923828
		c-0.1347656,0.2001953-0.3222656,0.3466797-0.5625,0.4394531c0.2744141,0.0693359,0.4902344,0.2070312,0.6484375,0.4160156
		s0.2373047,0.4628906,0.2373047,0.7646484c0,0.5146484-0.1640625,0.9052734-0.4921875,1.1689453
		c-0.3291016,0.265625-0.796875,0.4003906-1.4052734,0.4042969H62.0540466z M63.1575623,195.0839844h0.8164062
		c0.5566406-0.0097656,0.8339844-0.2324219,0.8339844-0.6660156c0-0.2421875-0.0703125-0.4179688-0.2109375-0.5234375
		c-0.140625-0.1074219-0.3632812-0.1601562-0.6669922-0.1601562h-0.7724609V195.0839844z M63.1575623,195.8632812v1.4443359
		h0.9453125c0.2597656,0,0.4619141-0.0615234,0.6083984-0.1855469c0.1455078-0.1240234,0.21875-0.2949219,0.21875-0.5126953
		c0-0.4902344-0.2539062-0.7392578-0.7617188-0.7460938H63.1575623z"/>
	<path fill="#808080" d="M69.8821716,197.0908203h-1.9335938l-0.3681641,1.1025391h-1.1728516l1.9931641-5.3535156h1.0224609
		l2.0039062,5.3535156h-1.1728516L69.8821716,197.0908203z M68.2464294,196.1972656h1.3378906l-0.6728516-2.0039062
		L68.2464294,196.1972656z"/>
	<path fill="#808080" d="M73.9085388,196.234375h-0.8789062v1.9589844h-1.1035156v-5.3535156h1.9892578
		c0.6328125,0,1.1201172,0.1416016,1.4638672,0.4238281c0.3427734,0.28125,0.5146484,0.6796875,0.5146484,1.1953125
		c0,0.3652344-0.0791016,0.6689453-0.2373047,0.9130859c-0.1582031,0.2431641-0.3974609,0.4384766-0.71875,0.5830078
		l1.1582031,2.1875v0.0507812h-1.1835938L73.9085388,196.234375z M73.0296326,195.3408203h0.8896484
		c0.2773438,0,0.4912109-0.0712891,0.6435547-0.2119141s0.2275391-0.3349609,0.2275391-0.5820312
		c0-0.2529297-0.0712891-0.4511719-0.2148438-0.5957031s-0.3632812-0.2167969-0.6601562-0.2167969h-0.8857422V195.3408203z"/>
	<path fill="#808080" d="M78.7142029,196.234375h-0.8789062v1.9589844H76.731781v-5.3535156h1.9892578
		c0.6328125,0,1.1201172,0.1416016,1.4638672,0.4238281c0.3427734,0.28125,0.5146484,0.6796875,0.5146484,1.1953125
		c0,0.3652344-0.0791016,0.6689453-0.2373047,0.9130859c-0.1582031,0.2431641-0.3974609,0.4384766-0.71875,0.5830078
		l1.1582031,2.1875v0.0507812h-1.1835938L78.7142029,196.234375z M77.8352966,195.3408203h0.8896484
		c0.2773438,0,0.4912109-0.0712891,0.6435547-0.2119141s0.2275391-0.3349609,0.2275391-0.5820312
		c0-0.2529297-0.0712891-0.4511719-0.2148438-0.5957031s-0.3632812-0.2167969-0.6601562-0.2167969h-0.8857422V195.3408203z"/>
	<path fill="#808080" d="M84.7591248,195.8740234h-2.1181641v1.4335938h2.4853516v0.8857422h-3.5888672v-5.3535156h3.5820312
		v0.8945312h-2.4785156v1.2753906h2.1181641V195.8740234z"/>
</g>
<g>
	<path fill="#808080" d="M216.5057068,128.7895508c0-0.2084961-0.0732422-0.3686523-0.2207031-0.4799805
		c-0.1464844-0.1113281-0.4121094-0.2290039-0.7939453-0.3530273c-0.3828125-0.1235352-0.6855469-0.2456055-0.9082031-0.3657227
		c-0.6083984-0.3286133-0.9121094-0.7709961-0.9121094-1.3276367c0-0.2890625,0.0820312-0.546875,0.2451172-0.7739258
		c0.1621094-0.2265625,0.3964844-0.4038086,0.7021484-0.53125c0.3046875-0.1274414,0.6474609-0.190918,1.0273438-0.190918
		c0.3828125,0,0.7226562,0.0693359,1.0224609,0.2075195c0.2988281,0.1386719,0.53125,0.3339844,0.6962891,0.5864258
		c0.1660156,0.2524414,0.2480469,0.5395508,0.2480469,0.8603516h-1.1025391c0-0.2451172-0.0771484-0.4355469-0.2314453-0.5717773
		c-0.1552734-0.1357422-0.3720703-0.2041016-0.6513672-0.2041016c-0.2695312,0-0.4794922,0.0571289-0.6289062,0.1713867
		c-0.1494141,0.1137695-0.2236328,0.2641602-0.2236328,0.4501953c0,0.1738281,0.0869141,0.3198242,0.2626953,0.4375
		c0.1748047,0.1176758,0.4335938,0.2280273,0.7734375,0.3310547c0.6279297,0.1884766,1.0849609,0.4228516,1.3720703,0.7021484
		c0.2861328,0.2792969,0.4296875,0.6274414,0.4296875,1.0439453c0,0.4633789-0.1748047,0.8271484-0.5253906,1.090332
		c-0.3505859,0.2636719-0.8222656,0.3955078-1.4160156,0.3955078c-0.4111328,0-0.7861328-0.0756836-1.125-0.2260742
		c-0.3378906-0.1508789-0.5957031-0.3574219-0.7734375-0.6196289s-0.2666016-0.5664062-0.2666016-0.9121094h1.1064453
		c0,0.5908203,0.3525391,0.8862305,1.0585938,0.8862305c0.2626953,0,0.4677734-0.0532227,0.6142578-0.1601562
		C216.4324646,129.1293945,216.5057068,128.9804688,216.5057068,128.7895508z"/>
	<path fill="#808080" d="M221.5799255,127.8740234h-2.1181641v1.4335938h2.4853516v0.8862305h-3.5888672v-5.3535156h3.5820312
		v0.8935547h-2.4785156v1.2758789h2.1181641V127.8740234z"/>
	<path fill="#808080" d="M226.7967224,128.4106445c-0.0419922,0.5761719-0.2548828,1.0292969-0.6376953,1.3603516
		c-0.3837891,0.3310547-0.8896484,0.496582-1.5166016,0.496582c-0.6865234,0-1.2265625-0.230957-1.6201172-0.6933594
		c-0.3935547-0.4619141-0.5898438-1.0961914-0.5898438-1.902832v-0.3271484c0-0.5146484,0.0908203-0.9682617,0.2714844-1.3603516
		c0.1816406-0.3920898,0.4414062-0.6928711,0.7783203-0.9023438c0.3369141-0.2099609,0.7285156-0.3144531,1.1748047-0.3144531
		c0.6171875,0,1.1152344,0.1655273,1.4921875,0.4960938c0.3779297,0.3310547,0.5957031,0.7954102,0.6542969,1.3935547h-1.1025391
		c-0.0273438-0.3457031-0.1230469-0.5961914-0.2890625-0.7519531c-0.1650391-0.1552734-0.4169922-0.2333984-0.7548828-0.2333984
		c-0.3681641,0-0.6435547,0.1318359-0.8261719,0.3955078c-0.1826172,0.2631836-0.2763672,0.671875-0.28125,1.2260742v0.4042969
		c0,0.5786133,0.0878906,1.0014648,0.2636719,1.2685547c0.1748047,0.2670898,0.4511719,0.4008789,0.8291016,0.4008789
		c0.3398438,0,0.5947266-0.078125,0.7626953-0.2333984c0.1679688-0.1557617,0.2636719-0.3964844,0.2880859-0.7226562H226.7967224z"
		/>
	<path fill="#808080" d="M231.4441833,125.7338867h-1.6396484v4.4599609h-1.1035156v-4.4599609h-1.6171875v-0.8935547h4.3603516
		V125.7338867z"/>
	<path fill="#808080" d="M233.2459412,130.1938477h-1.1025391v-5.3535156h1.1025391V130.1938477z"/>
	<path fill="#808080" d="M238.6648865,127.6386719c0,0.5268555-0.0927734,0.9887695-0.2792969,1.3857422
		c-0.1865234,0.3974609-0.453125,0.7036133-0.7998047,0.9194336s-0.7441406,0.3237305-1.1923828,0.3237305
		c-0.4443359,0-0.8398438-0.1069336-1.1875-0.3203125c-0.3486328-0.2128906-0.6181641-0.5175781-0.8095703-0.9135742
		c-0.1914062-0.3955078-0.2880859-0.8510742-0.2900391-1.3657227v-0.2646484c0-0.5273438,0.0947266-0.9912109,0.2851562-1.3916016
		c0.1894531-0.4008789,0.4580078-0.7084961,0.8046875-0.9228516c0.3466797-0.2148438,0.7431641-0.3217773,1.1894531-0.3217773
		s0.8427734,0.1069336,1.1894531,0.3217773c0.3466797,0.2143555,0.6152344,0.5219727,0.8056641,0.9228516
		c0.1894531,0.4003906,0.2841797,0.8632812,0.2841797,1.3876953V127.6386719z M237.547699,127.3959961
		c0-0.5615234-0.1005859-0.987793-0.3017578-1.2797852c-0.2011719-0.2915039-0.4873047-0.4375-0.8603516-0.4375
		c-0.3701172,0-0.6552734,0.144043-0.8564453,0.4321289s-0.3027344,0.7104492-0.3056641,1.2666016v0.2612305
		c0,0.5463867,0.1005859,0.9707031,0.3017578,1.2719727s0.4902344,0.4521484,0.8681641,0.4521484
		c0.3701172,0,0.6542969-0.1450195,0.8525391-0.4355469s0.2988281-0.7138672,0.3017578-1.2705078V127.3959961z"/>
	<path fill="#808080" d="M243.8201599,130.1938477h-1.1025391l-2.1474609-3.5224609v3.5224609h-1.1035156v-5.3535156h1.1035156
		l2.1503906,3.5297852v-3.5297852h1.0996094V130.1938477z"/>
</g>
<g>
	<path fill="#808080" d="M216.5057068,168.2895508c0-0.2084961-0.0732422-0.3686523-0.2207031-0.4799805
		c-0.1464844-0.1113281-0.4121094-0.2290039-0.7939453-0.3530273c-0.3828125-0.1235352-0.6855469-0.2456055-0.9082031-0.3657227
		c-0.6083984-0.3286133-0.9121094-0.7709961-0.9121094-1.3276367c0-0.2890625,0.0820312-0.546875,0.2451172-0.7739258
		c0.1621094-0.2265625,0.3964844-0.4038086,0.7021484-0.53125c0.3046875-0.1274414,0.6474609-0.190918,1.0273438-0.190918
		c0.3828125,0,0.7226562,0.0693359,1.0224609,0.2075195c0.2988281,0.1386719,0.53125,0.3339844,0.6962891,0.5864258
		c0.1660156,0.2524414,0.2480469,0.5395508,0.2480469,0.8603516h-1.1025391c0-0.2451172-0.0771484-0.4355469-0.2314453-0.5717773
		c-0.1552734-0.1357422-0.3720703-0.2041016-0.6513672-0.2041016c-0.2695312,0-0.4794922,0.0571289-0.6289062,0.1713867
		c-0.1494141,0.1137695-0.2236328,0.2641602-0.2236328,0.4501953c0,0.1738281,0.0869141,0.3198242,0.2626953,0.4375
		c0.1748047,0.1176758,0.4335938,0.2280273,0.7734375,0.3310547c0.6279297,0.1884766,1.0849609,0.4228516,1.3720703,0.7021484
		c0.2861328,0.2792969,0.4296875,0.6274414,0.4296875,1.0439453c0,0.4633789-0.1748047,0.8271484-0.5253906,1.090332
		c-0.3505859,0.2636719-0.8222656,0.3955078-1.4160156,0.3955078c-0.4111328,0-0.7861328-0.0756836-1.125-0.2260742
		c-0.3378906-0.1508789-0.5957031-0.3574219-0.7734375-0.6196289s-0.2666016-0.5664062-0.2666016-0.9121094h1.1064453
		c0,0.5908203,0.3525391,0.8862305,1.0585938,0.8862305c0.2626953,0,0.4677734-0.0532227,0.6142578-0.1601562
		C216.4324646,168.6293945,216.5057068,168.4804688,216.5057068,168.2895508z"/>
	<path fill="#808080" d="M221.5799255,167.3740234h-2.1181641v1.4335938h2.4853516v0.8862305h-3.5888672v-5.3535156h3.5820312
		v0.8935547h-2.4785156v1.2758789h2.1181641V167.3740234z"/>
	<path fill="#808080" d="M226.7967224,167.9106445c-0.0419922,0.5761719-0.2548828,1.0292969-0.6376953,1.3603516
		c-0.3837891,0.3310547-0.8896484,0.496582-1.5166016,0.496582c-0.6865234,0-1.2265625-0.230957-1.6201172-0.6933594
		c-0.3935547-0.4619141-0.5898438-1.0961914-0.5898438-1.902832v-0.3271484c0-0.5146484,0.0908203-0.9682617,0.2714844-1.3603516
		c0.1816406-0.3920898,0.4414062-0.6928711,0.7783203-0.9023438c0.3369141-0.2099609,0.7285156-0.3144531,1.1748047-0.3144531
		c0.6171875,0,1.1152344,0.1655273,1.4921875,0.4960938c0.3779297,0.3310547,0.5957031,0.7954102,0.6542969,1.3935547h-1.1025391
		c-0.0273438-0.3457031-0.1230469-0.5961914-0.2890625-0.7519531c-0.1650391-0.1552734-0.4169922-0.2333984-0.7548828-0.2333984
		c-0.3681641,0-0.6435547,0.1318359-0.8261719,0.3955078c-0.1826172,0.2631836-0.2763672,0.671875-0.28125,1.2260742v0.4042969
		c0,0.5786133,0.0878906,1.0014648,0.2636719,1.2685547c0.1748047,0.2670898,0.4511719,0.4008789,0.8291016,0.4008789
		c0.3398438,0,0.5947266-0.078125,0.7626953-0.2333984c0.1679688-0.1557617,0.2636719-0.3964844,0.2880859-0.7226562H226.7967224z"
		/>
	<path fill="#808080" d="M231.4441833,165.2338867h-1.6396484v4.4599609h-1.1035156v-4.4599609h-1.6171875v-0.8935547h4.3603516
		V165.2338867z"/>
	<path fill="#808080" d="M233.2459412,169.6938477h-1.1025391v-5.3535156h1.1025391V169.6938477z"/>
	<path fill="#808080" d="M238.6648865,167.1386719c0,0.5268555-0.0927734,0.9887695-0.2792969,1.3857422
		c-0.1865234,0.3974609-0.453125,0.7036133-0.7998047,0.9194336s-0.7441406,0.3237305-1.1923828,0.3237305
		c-0.4443359,0-0.8398438-0.1069336-1.1875-0.3203125c-0.3486328-0.2128906-0.6181641-0.5175781-0.8095703-0.9135742
		c-0.1914062-0.3955078-0.2880859-0.8510742-0.2900391-1.3657227v-0.2646484c0-0.5273438,0.0947266-0.9912109,0.2851562-1.3916016
		c0.1894531-0.4008789,0.4580078-0.7084961,0.8046875-0.9228516c0.3466797-0.2148438,0.7431641-0.3217773,1.1894531-0.3217773
		s0.8427734,0.1069336,1.1894531,0.3217773c0.3466797,0.2143555,0.6152344,0.5219727,0.8056641,0.9228516
		c0.1894531,0.4003906,0.2841797,0.8632812,0.2841797,1.3876953V167.1386719z M237.547699,166.8959961
		c0-0.5615234-0.1005859-0.987793-0.3017578-1.2797852c-0.2011719-0.2915039-0.4873047-0.4375-0.8603516-0.4375
		c-0.3701172,0-0.6552734,0.144043-0.8564453,0.4321289s-0.3027344,0.7104492-0.3056641,1.2666016v0.2612305
		c0,0.5463867,0.1005859,0.9707031,0.3017578,1.2719727s0.4902344,0.4521484,0.8681641,0.4521484
		c0.3701172,0,0.6542969-0.1450195,0.8525391-0.4355469s0.2988281-0.7138672,0.3017578-1.2705078V166.8959961z"/>
	<path fill="#808080" d="M243.8201599,169.6938477h-1.1025391l-2.1474609-3.5224609v3.5224609h-1.1035156v-5.3535156h1.1035156
		l2.1503906,3.5297852v-3.5297852h1.0996094V169.6938477z"/>
</g>
<g>
	<path fill="#808080" d="M114.0413513,91.5024414h-3.6230469v9.8530273h-2.4370117v-9.8530273h-3.5742188v-1.9741211h9.6342773
		V91.5024414z"/>
	<path fill="#808080" d="M118.0213318,101.3554688h-2.4365234V89.5283203h2.4365234V101.3554688z"/>
	<path fill="#808080" d="M128.947113,91.5024414h-3.6230469v9.8530273h-2.4370117v-9.8530273h-3.5742188v-1.9741211h9.6342773
		V91.5024414z"/>
	<path fill="#808080" d="M134.7137146,97.0258789h-1.9414062v4.3295898h-2.4365234V89.5283203h4.3945312
		c1.3969727,0,2.4746094,0.3115234,3.2329102,0.934082c0.7578125,0.6230469,1.137207,1.5029297,1.137207,2.6401367
		c0,0.8071289-0.1748047,1.4799805-0.5239258,2.0185547c-0.3496094,0.5390625-0.8789062,0.9682617-1.5883789,1.2875977
		l2.559082,4.8330078v0.1137695h-2.6157227L134.7137146,97.0258789z M132.7723083,95.0522461h1.9658203
		c0.6118164,0,1.0859375-0.1557617,1.421875-0.4672852c0.3354492-0.3115234,0.503418-0.7402344,0.503418-1.2875977
		c0-0.5576172-0.1582031-0.9960938-0.4750977-1.315918c-0.3168945-0.3193359-0.8032227-0.4790039-1.4580078-0.4790039h-1.9580078
		V95.0522461z"/>
	<path fill="#808080" d="M148.0682068,96.2299805h-4.6791992v3.1679688h5.4912109v1.9575195h-7.9277344V89.5283203h7.9116211
		v1.9741211h-5.4750977v2.8183594h4.6791992V96.2299805z"/>
	<path fill="#808080" d="M154.4529724,101.3554688V89.5283203h3.6391602c1.0390625,0,1.9697266,0.234375,2.7900391,0.7026367
		c0.8203125,0.46875,1.4609375,1.1347656,1.9208984,1.9985352s0.6904297,1.8452148,0.6904297,2.9443359v0.5444336
		c0,1.0991211-0.2255859,2.0766602-0.6777344,2.9321289c-0.4521484,0.855957-1.0898438,1.519043-1.9130859,1.9902344
		s-1.7519531,0.7094727-2.7861328,0.7148438H154.4529724z M156.8899841,91.5024414v7.8955078h1.1777344
		c0.953125,0,1.6816406-0.3115234,2.1845703-0.934082c0.5039062-0.6230469,0.7607422-1.5136719,0.7724609-2.6728516v-0.625
		c0-1.2026367-0.25-2.1132812-0.7480469-2.7333984s-1.2265625-0.9301758-2.1845703-0.9301758H156.8899841z"/>
	<path fill="#808080" d="M172.3802185,96.2299805h-4.6787109v3.1679688h5.4912109v1.9575195h-7.9287109V89.5283203h7.9121094
		v1.9741211h-5.4746094v2.8183594h4.6787109V96.2299805z"/>
	<path fill="#808080" d="M181.9485779,89.5283203l3.0385742,8.578125l3.0214844-8.578125h3.2001953v11.8271484h-2.4443359
		v-3.2329102l0.2431641-5.5805664l-3.1923828,8.8134766h-1.6728516l-3.1850586-8.8051758l0.2441406,5.5722656v3.2329102h-2.4375
		V89.5283203H181.9485779z"/>
	<path fill="#808080" d="M200.1609802,98.918457h-4.2734375l-0.8115234,2.4370117h-2.5917969l4.4033203-11.8271484h2.2578125
		l4.4267578,11.8271484h-2.5908203L200.1609802,98.918457z M196.5457458,96.9448242h2.9570312l-1.4863281-4.4272461
		L196.5457458,96.9448242z"/>
	<path fill="#808080" d="M211.2576599,97.1884766v4.1669922h-2.4375V89.5283203h4.6142578
		c0.8876953,0,1.6689453,0.1625977,2.34375,0.4873047c0.6738281,0.3251953,1.1923828,0.7866211,1.5546875,1.3852539
		c0.3632812,0.5981445,0.5449219,1.2792969,0.5449219,2.0429688c0,1.1586914-0.3964844,2.0727539-1.1904297,2.7412109
		c-0.7929688,0.6689453-1.8916016,1.003418-3.2939453,1.003418H211.2576599z M211.2576599,95.2143555h2.1767578
		c0.6445312,0,1.1357422-0.1513672,1.4746094-0.4545898c0.3378906-0.3032227,0.5068359-0.7363281,0.5068359-1.2998047
		c0-0.5795898-0.1699219-1.0478516-0.5117188-1.4052734c-0.3408203-0.3574219-0.8115234-0.5415039-1.4130859-0.5522461h-2.2333984
		V95.2143555z"/>
	<path fill="#808080" d="M224.782074,98.918457h-4.2734375l-0.8115234,2.4370117h-2.5917969l4.4033203-11.8271484h2.2578125
		l4.4267578,11.8271484h-2.5908203L224.782074,98.918457z M221.1668396,96.9448242h2.9570312l-1.4863281-4.4272461
		L221.1668396,96.9448242z"/>
	<path fill="#808080" d="M238.485199,99.8608398c-0.4394531,0.5253906-1.0595703,0.9331055-1.8603516,1.2226562
		c-0.8017578,0.2895508-1.6894531,0.4345703-2.6650391,0.4345703c-1.0234375,0-1.9208984-0.2236328-2.6923828-0.6704102
		s-1.3671875-1.0952148-1.7871094-1.9453125s-0.6347656-1.8491211-0.6455078-2.9975586v-0.8041992
		c0-1.1801758,0.1992188-2.2021484,0.5966797-3.0664062c0.3984375-0.8632812,0.9726562-1.5239258,1.7226562-1.9819336
		c0.75-0.4575195,1.6279297-0.6860352,2.6357422-0.6860352c1.4023438,0,2.4990234,0.3339844,3.2900391,1.0029297
		c0.7900391,0.6689453,1.2587891,1.6420898,1.4052734,2.9204102h-2.3720703
		c-0.1083984-0.6772461-0.3486328-1.1723633-0.71875-1.4868164c-0.3710938-0.3139648-0.8818359-0.4711914-1.53125-0.4711914
		c-0.8291016,0-1.4599609,0.3115234-1.8925781,0.9345703c-0.4335938,0.6225586-0.6533203,1.5483398-0.6582031,2.777832v0.7553711
		c0,1.2402344,0.2353516,2.1767578,0.7070312,2.8105469c0.4707031,0.6337891,1.1611328,0.9501953,2.0712891,0.9501953
		c0.9150391,0,1.5673828-0.1948242,1.9570312-0.5844727v-2.0390625h-2.2177734v-1.7949219h4.6552734V99.8608398z"/>
	<path fill="#808080" d="M247.5750427,96.2299805h-4.6787109v3.1679688h5.4912109v1.9575195h-7.9287109V89.5283203h7.9121094
		v1.9741211h-5.4746094v2.8183594h4.6787109V96.2299805z"/>
</g>
<rect x="132.563385" y="186.5" fill="#C6C6C6" width="61.4474449" height="114.5"/>
<rect x="200.3258514" y="186.5" fill="#C6C6C6" width="61.4474449" height="114.5"/>
<rect x="268.0883179" y="186.5" fill="#C6C6C6" width="61.4474449" height="114.5"/>
<g>
	<path fill="#808080" d="M150.6731873,242.6464844h-1.9335938L148.3714294,243.75h-1.1728516l1.9931641-5.3535156h1.0224609
		L152.2181091,243.75h-1.1728516L150.6731873,242.6464844z M149.0374451,241.7539062h1.3378906L149.7024841,239.75
		L149.0374451,241.7539062z"/>
	<path fill="#808080" d="M154.6995544,241.7910156h-0.8789062V243.75h-1.1035156v-5.3535156h1.9892578
		c0.6328125,0,1.1201172,0.140625,1.4638672,0.4228516c0.3427734,0.2822266,0.5146484,0.6806641,0.5146484,1.1953125
		c0,0.3652344-0.0791016,0.6689453-0.2373047,0.9130859s-0.3974609,0.4384766-0.71875,0.5830078l1.1582031,2.1884766V243.75
		h-1.1835938L154.6995544,241.7910156z M153.8206482,240.8964844h0.8896484c0.2773438,0,0.4912109-0.0703125,0.6435547-0.2109375
		s0.2275391-0.3359375,0.2275391-0.5830078c0-0.2529297-0.0712891-0.4501953-0.2148438-0.5957031
		c-0.1435547-0.1445312-0.3632812-0.2167969-0.6601562-0.2167969h-0.8857422V240.8964844z"/>
	<path fill="#808080" d="M161.3694763,239.2900391h-1.6396484V243.75h-1.1035156v-4.4599609h-1.6171875v-0.8935547h4.3603516
		V239.2900391z"/>
	<path fill="#808080" d="M163.1702576,243.75h-1.1025391v-5.3535156h1.1025391V243.75z"/>
	<path fill="#808080" d="M168.3958435,241.9667969c-0.0419922,0.5761719-0.2548828,1.0292969-0.6376953,1.3603516
		c-0.3837891,0.3310547-0.8896484,0.4970703-1.5166016,0.4970703c-0.6865234,0-1.2265625-0.2314453-1.6201172-0.6933594
		c-0.3935547-0.4628906-0.5898438-1.0966797-0.5898438-1.9033203v-0.3271484c0-0.5146484,0.0908203-0.96875,0.2714844-1.3603516
		c0.1816406-0.3916016,0.4414062-0.6923828,0.7783203-0.9023438s0.7285156-0.3144531,1.1748047-0.3144531
		c0.6171875,0,1.1152344,0.1650391,1.4921875,0.4960938c0.3779297,0.3310547,0.5957031,0.7958984,0.6542969,1.3935547h-1.1025391
		c-0.0273438-0.3457031-0.1230469-0.5957031-0.2890625-0.7519531c-0.1650391-0.1552734-0.4169922-0.2333984-0.7548828-0.2333984
		c-0.3681641,0-0.6435547,0.1318359-0.8261719,0.3955078s-0.2763672,0.671875-0.28125,1.2265625v0.4042969
		c0,0.578125,0.0878906,1.0009766,0.2636719,1.2675781c0.1748047,0.2675781,0.4511719,0.4013672,0.8291016,0.4013672
		c0.3398438,0,0.5947266-0.078125,0.7626953-0.2333984c0.1679688-0.15625,0.2636719-0.3964844,0.2880859-0.7226562H168.3958435z"/>
	<path fill="#808080" d="M170.2229919,242.8632812h2.3417969V243.75h-3.4453125v-5.3535156h1.1035156V242.8632812z"/>
	<path fill="#808080" d="M176.4183044,241.4296875h-2.1181641v1.4335938h2.4853516V243.75h-3.5888672v-5.3535156h3.5820312
		v0.8935547h-2.4785156v1.2763672h2.1181641V241.4296875z"/>
</g>
<g>
	<path fill="#808080" d="M217.3894958,242.6464844h-1.9335938L215.087738,243.75h-1.1728516l1.9931641-5.3535156h1.0224609
		L218.9344177,243.75h-1.1728516L217.3894958,242.6464844z M215.7537537,241.7539062h1.3378906L216.4187927,239.75
		L215.7537537,241.7539062z"/>
	<path fill="#808080" d="M221.415863,241.7910156h-0.8789062V243.75h-1.1035156v-5.3535156h1.9892578
		c0.6328125,0,1.1201172,0.140625,1.4638672,0.4228516c0.3427734,0.2822266,0.5146484,0.6806641,0.5146484,1.1953125
		c0,0.3652344-0.0791016,0.6689453-0.2373047,0.9130859s-0.3974609,0.4384766-0.71875,0.5830078l1.1582031,2.1884766V243.75
		h-1.1835938L221.415863,241.7910156z M220.5369568,240.8964844h0.8896484c0.2773438,0,0.4912109-0.0703125,0.6435547-0.2109375
		s0.2275391-0.3359375,0.2275391-0.5830078c0-0.2529297-0.0712891-0.4501953-0.2148438-0.5957031
		c-0.1435547-0.1445312-0.3632812-0.2167969-0.6601562-0.2167969h-0.8857422V240.8964844z"/>
	<path fill="#808080" d="M228.0857849,239.2900391h-1.6396484V243.75h-1.1035156v-4.4599609h-1.6171875v-0.8935547h4.3603516
		V239.2900391z"/>
	<path fill="#808080" d="M229.8865662,243.75h-1.1025391v-5.3535156h1.1025391V243.75z"/>
	<path fill="#808080" d="M235.1121521,241.9667969c-0.0419922,0.5761719-0.2548828,1.0292969-0.6376953,1.3603516
		c-0.3837891,0.3310547-0.8896484,0.4970703-1.5166016,0.4970703c-0.6865234,0-1.2265625-0.2314453-1.6201172-0.6933594
		c-0.3935547-0.4628906-0.5898438-1.0966797-0.5898438-1.9033203v-0.3271484c0-0.5146484,0.0908203-0.96875,0.2714844-1.3603516
		c0.1816406-0.3916016,0.4414062-0.6923828,0.7783203-0.9023438s0.7285156-0.3144531,1.1748047-0.3144531
		c0.6171875,0,1.1152344,0.1650391,1.4921875,0.4960938c0.3779297,0.3310547,0.5957031,0.7958984,0.6542969,1.3935547h-1.1025391
		c-0.0273438-0.3457031-0.1230469-0.5957031-0.2890625-0.7519531c-0.1650391-0.1552734-0.4169922-0.2333984-0.7548828-0.2333984
		c-0.3681641,0-0.6435547,0.1318359-0.8261719,0.3955078s-0.2763672,0.671875-0.28125,1.2265625v0.4042969
		c0,0.578125,0.0878906,1.0009766,0.2636719,1.2675781c0.1748047,0.2675781,0.4511719,0.4013672,0.8291016,0.4013672
		c0.3398438,0,0.5947266-0.078125,0.7626953-0.2333984c0.1679688-0.15625,0.2636719-0.3964844,0.2880859-0.7226562H235.1121521z"/>
	<path fill="#808080" d="M236.9393005,242.8632812h2.3417969V243.75h-3.4453125v-5.3535156h1.1035156V242.8632812z"/>
	<path fill="#808080" d="M243.134613,241.4296875h-2.1181641v1.4335938h2.4853516V243.75h-3.5888672v-5.3535156h3.5820312v0.8935547
		h-2.4785156v1.2763672h2.1181641V241.4296875z"/>
</g>
<g>
	<path fill="#808080" d="M284.1053162,242.6464844h-1.9335938L281.8035583,243.75h-1.1728516l1.9931641-5.3535156h1.0224609
		L285.650238,243.75h-1.1728516L284.1053162,242.6464844z M282.469574,241.7539062h1.3378906L283.134613,239.75
		L282.469574,241.7539062z"/>
	<path fill="#808080" d="M288.1316833,241.7910156h-0.8789062V243.75h-1.1035156v-5.3535156h1.9892578
		c0.6328125,0,1.1201172,0.140625,1.4638672,0.4228516c0.3427734,0.2822266,0.5146484,0.6806641,0.5146484,1.1953125
		c0,0.3652344-0.0791016,0.6689453-0.2373047,0.9130859s-0.3974609,0.4384766-0.71875,0.5830078l1.1582031,2.1884766V243.75
		h-1.1835938L288.1316833,241.7910156z M287.2527771,240.8964844h0.8896484c0.2773438,0,0.4912109-0.0703125,0.6435547-0.2109375
		s0.2275391-0.3359375,0.2275391-0.5830078c0-0.2529297-0.0712891-0.4501953-0.2148438-0.5957031
		c-0.1435547-0.1445312-0.3632812-0.2167969-0.6601562-0.2167969h-0.8857422V240.8964844z"/>
	<path fill="#808080" d="M294.8016052,239.2900391h-1.6396484V243.75h-1.1035156v-4.4599609h-1.6171875v-0.8935547h4.3603516
		V239.2900391z"/>
	<path fill="#808080" d="M296.6023865,243.75h-1.1025391v-5.3535156h1.1025391V243.75z"/>
	<path fill="#808080" d="M301.8279724,241.9667969c-0.0419922,0.5761719-0.2548828,1.0292969-0.6376953,1.3603516
		c-0.3837891,0.3310547-0.8896484,0.4970703-1.5166016,0.4970703c-0.6865234,0-1.2265625-0.2314453-1.6201172-0.6933594
		c-0.3935547-0.4628906-0.5898438-1.0966797-0.5898438-1.9033203v-0.3271484c0-0.5146484,0.0908203-0.96875,0.2714844-1.3603516
		c0.1816406-0.3916016,0.4414062-0.6923828,0.7783203-0.9023438s0.7285156-0.3144531,1.1748047-0.3144531
		c0.6171875,0,1.1152344,0.1650391,1.4921875,0.4960938c0.3779297,0.3310547,0.5957031,0.7958984,0.6542969,1.3935547h-1.1025391
		c-0.0273438-0.3457031-0.1230469-0.5957031-0.2890625-0.7519531c-0.1650391-0.1552734-0.4169922-0.2333984-0.7548828-0.2333984
		c-0.3681641,0-0.6435547,0.1318359-0.8261719,0.3955078s-0.2763672,0.671875-0.28125,1.2265625v0.4042969
		c0,0.578125,0.0878906,1.0009766,0.2636719,1.2675781c0.1748047,0.2675781,0.4511719,0.4013672,0.8291016,0.4013672
		c0.3398438,0,0.5947266-0.078125,0.7626953-0.2333984c0.1679688-0.15625,0.2636719-0.3964844,0.2880859-0.7226562H301.8279724z"/>
	<path fill="#808080" d="M303.6551208,242.8632812h2.3417969V243.75h-3.4453125v-5.3535156h1.1035156V242.8632812z"/>
	<path fill="#808080" d="M309.8504333,241.4296875h-2.1181641v1.4335938h2.4853516V243.75h-3.5888672v-5.3535156h3.5820312
		v0.8935547h-2.4785156v1.2763672h2.1181641V241.4296875z"/>
</g>
</svg>
